<svg width="41" height="31" viewBox="0 0 41 31" fill="none" xmlns="http://www.w3.org/2000/svg">
<path d="M0.810055 22.6C-0.689945 23.6 -0.189945 25.5 3.01006 26.4C6.31006 27.5 9.91006 27.8 13.4101 27.2C13.6101 27.2 13.8101 27.1 13.9101 27.1V23.7L10.5101 24.8C9.21006 25.2 7.91006 25.3 6.61006 25C5.61006 24.7 5.81005 24.1 7.01006 23.6L13.9101 21.2V17.5L4.31006 20.8C3.11006 21.2 1.91006 21.8 0.810055 22.6ZM24.0101 7.6V17.3C28.1101 19.3 31.3101 17.3 31.3101 12.1C31.3101 6.8 29.4101 4.4 23.9101 2.5C21.0101 1.5 18.0101 0.6 15.0101 0V28.9L22.0101 31V6.7C22.0101 5.6 22.0101 4.8 22.8101 5.1C23.9101 5.4 24.0101 6.5 24.0101 7.6ZM37.0101 20.3C34.1101 19.3 31.0101 18.9 28.0101 19.2C26.4101 19.3 24.9101 19.7 23.5101 20.2L23.2101 20.3V24.2L29.7101 21.8C31.0101 21.4 32.3101 21.3 33.6101 21.6C34.6101 21.9 34.4101 22.5 33.2101 23L23.2101 26.7V30.5L37.0101 25.4C38.0101 25 38.9101 24.5 39.7101 23.7C40.4101 22.7 40.1101 21.3 37.0101 20.3Z" fill="#0070D1"/>
</svg>
